<?xml version="1.0" encoding="utf-8"?><svg xmlns="http://www.w3.org/2000/svg" xmlns:xlink="http://www.w3.org/1999/xlink" width="974" height="959" preserveAspectRatio="xMidYMid" viewBox="0 0 974 959" style="z-index:1;margin-right:-2px;display:block;background-repeat-y:initial;background-repeat-x:initial;background-color:rgb(241, 242, 243);animation-play-state:paused" ><g transform="translate(487,479.5) scale(1,1) translate(-487,-479.5)" style="transform:matrix(1, 0, 0, 1, 0, 0);animation-play-state:paused" ><defs style="animation-play-state:paused" ><linearGradient id="lg-0.840630454600644" x1="0" x2="0" y1="0" y2="1" style="animation-play-state:paused" ><stop stop-color="#4f8fc0" offset="0" style="animation-play-state:paused" ></stop>

  
<stop stop-color="#26648e" offset="1" style="animation-play-state:paused" ></stop></linearGradient></defs>


<rect x="0" y="0" width="974" height="959" fill="url(#lg-0.840630454600644)" style="animation-play-state:paused" ></rect>
<circle cx="0" cy="512.4487996911109" r="62.12600025740759" fill="#53d2dc" transform="matrix(1,0,0,1,0,0)" style="transform:matrix(1, 0, 0, 1, 0, 0);animation-play-state:paused" ></circle>
<circle cx="62.12600025740759" cy="530.8634340538665" r="53.62081392038169" fill="#53d2dc" transform="matrix(1,0,0,1,-0.005429744720458984,0)" style="transform:matrix(1, 0, 0, 1, -0.00542974, 0);animation-play-state:paused" ></circle>
<circle cx="115.74681417778928" cy="522.9013833828543" r="70.06904246809385" fill="#53d2dc" transform="matrix(1,0,0,1,-0.022117653861641884,0)" style="transform:matrix(1, 0, 0, 1, -0.0221177, 0);animation-play-state:paused" ></circle>
<circle cx="185.81585664588312" cy="558.6070529538337" r="38.258336626156904" fill="#53d2dc" transform="matrix(1,0,0,1,-0.05069183558225632,0)" style="transform:matrix(1, 0, 0, 1, -0.0506918, 0);animation-play-state:paused" ></circle>
<circle cx="224.07419327204002" cy="536.0497638106733" r="78.64311398016996" fill="#53d2dc" transform="matrix(1,0,0,1,-0.09182170033454895,0)" style="transform:matrix(1, 0, 0, 1, -0.0918217, 0);animation-play-state:paused" ></circle>
<circle cx="302.71730725221" cy="546.4074735927608" r="89.39418050949229" fill="#53d2dc" transform="matrix(1,0,0,1,-0.14621886610984802,0)" style="transform:matrix(1, 0, 0, 1, -0.146219, 0);animation-play-state:paused" ></circle>
<circle cx="392.1114877617023" cy="573.175879296147" r="59.12506006583436" fill="#53d2dc" transform="matrix(1,0,0,1,-0.21463720500469208,0)" style="transform:matrix(1, 0, 0, 1, -0.214637, 0);animation-play-state:paused" ></circle>
<circle cx="451.23654782753664" cy="580.4996105661816" r="73.76454317579903" fill="#53d2dc" transform="matrix(1,0,0,1,-0.2978716492652893,0)" style="transform:matrix(1, 0, 0, 1, -0.297872, 0);animation-play-state:paused" ></circle>
<circle cx="525.0010910033357" cy="582.1459653580588" r="51.83875006855836" fill="#53d2dc" transform="matrix(1,0,0,1,-0.3967548906803131,0)" style="transform:matrix(1, 0, 0, 1, -0.396755, 0);animation-play-state:paused" ></circle>
<circle cx="576.839841071894" cy="574.5788280646997" r="56.11013499428806" fill="#53d2dc" transform="matrix(1,0,0,1,-0.5121519565582275,0)" style="transform:matrix(1, 0, 0, 1, -0.512152, 0);animation-play-state:paused" ></circle>
<circle cx="632.9499760661821" cy="574.6102837478034" r="34.45125502044001" fill="#53d2dc" transform="matrix(1,0,0,1,-0.6449503302574158,0)" style="transform:matrix(1, 0, 0, 1, -0.64495, 0);animation-play-state:paused" ></circle>
<circle cx="667.4012310866221" cy="568.1854032146767" r="42.32560101013955" fill="#53d2dc" transform="matrix(1,0,0,1,-0.7960466146469116,0)" style="transform:matrix(1, 0, 0, 1, -0.796047, 0);animation-play-state:paused" ></circle>
<circle cx="709.7268320967617" cy="548.2151704513792" r="70.67032072563107" fill="#53d2dc" transform="matrix(1,0,0,1,-0.9663257002830505,0)" style="transform:matrix(1, 0, 0, 1, -0.966326, 0);animation-play-state:paused" ></circle>
<circle cx="780.3971528223927" cy="552.407663314089" r="47.84887368532355" fill="#53d2dc" transform="matrix(1,0,0,1,-1.156632423400879,0)" style="transform:matrix(1, 0, 0, 1, -1.15663, 0);animation-play-state:paused" ></circle>
<circle cx="828.2460265077162" cy="541.078927981161" r="54.612509098986116" fill="#53d2dc" transform="matrix(1,0,0,1,-1.3677335977554321,0)" style="transform:matrix(1, 0, 0, 1, -1.36773, 0);animation-play-state:paused" ></circle>
<circle cx="882.8585356067024" cy="515.2589203918175" r="73.54880305839183" fill="#53d2dc" transform="matrix(1,0,0,1,-1.600266933441162,0)" style="transform:matrix(1, 0, 0, 1, -1.60027, 0);animation-play-state:paused" ></circle>
<circle cx="956.4073386650942" cy="482.78112331639176" r="90.10403254675296" fill="#53d2dc" transform="matrix(1,0,0,1,-1.8546782732009888,0)" style="transform:matrix(1, 0, 0, 1, -1.85468, 0);animation-play-state:paused" ></circle>
<circle cx="1046.5113712118473" cy="544.1573270154862" r="31.07530191666468" fill="#53d2dc" transform="matrix(1,0,0,1,-2.131143569946289,0)" style="transform:matrix(1, 0, 0, 1, -2.13114, 0);animation-play-state:paused" ></circle>
<circle cx="0" cy="553.2225009229941" r="79.81458256417157" fill="#77d7ed" transform="matrix(1,0,0,1,0,0)" style="transform:matrix(1, 0, 0, 1, 0, 0);animation-play-state:paused" ></circle>
<circle cx="79.81458256417157" cy="564.4002515434896" r="84.3188298133933" fill="#77d7ed" transform="matrix(1,0,0,1,-0.022117653861641884,0)" style="transform:matrix(1, 0, 0, 1, -0.0221177, 0);animation-play-state:paused" ></circle>
<circle cx="164.13341237756487" cy="578.6784170145532" r="88.39205889472282" fill="#77d7ed" transform="matrix(1,0,0,1,-0.09182170033454895,0)" style="transform:matrix(1, 0, 0, 1, -0.0918217, 0);animation-play-state:paused" ></circle>
<circle cx="252.5254712722877" cy="618.6419506471974" r="52.54433575022947" fill="#77d7ed" transform="matrix(1,0,0,1,-0.21463720500469208,0)" style="transform:matrix(1, 0, 0, 1, -0.214637, 0);animation-play-state:paused" ></circle>
<circle cx="305.0698070225172" cy="607.9194174924174" r="91.63882839606886" fill="#77d7ed" transform="matrix(1,0,0,1,-0.3967548906803131,0)" style="transform:matrix(1, 0, 0, 1, -0.396755, 0);animation-play-state:paused" ></circle>
<circle cx="396.708635418586" cy="629.0210439786667" r="89.79957669536385" fill="#77d7ed" transform="matrix(1,0,0,1,-0.6449503302574158,0)" style="transform:matrix(1, 0, 0, 1, -0.64495, 0);animation-play-state:paused" ></circle>
<circle cx="486.50821211394987" cy="648.9311861120518" r="56.78661536366007" fill="#77d7ed" transform="matrix(1,0,0,1,-0.9663257002830505,0)" style="transform:matrix(1, 0, 0, 1, -0.966326, 0);animation-play-state:paused" ></circle>
<circle cx="543.2948274776099" cy="640.815755928839" r="59.00078570333713" fill="#77d7ed" transform="matrix(1,0,0,1,-1.3677335977554321,0)" style="transform:matrix(1, 0, 0, 1, -1.36773, 0);animation-play-state:paused" ></circle>
<circle cx="602.295613180947" cy="635.3568987008772" r="48.022861620396256" fill="#77d7ed" transform="matrix(1,0,0,1,-1.8546782732009888,0)" style="transform:matrix(1, 0, 0, 1, -1.85468, 0);animation-play-state:paused" ></circle>
<circle cx="650.3184748013433" cy="621.1655869658711" r="69.16628775010098" fill="#77d7ed" transform="matrix(1,0,0,1,-2.4294803142547607,0)" style="transform:matrix(1, 0, 0, 1, -2.42948, 0);animation-play-state:paused" ></circle>
<circle cx="719.4847625514443" cy="627.869496886057" r="36.886127157878896" fill="#77d7ed" transform="matrix(1,0,0,1,-3.0886495113372803,0)" style="transform:matrix(1, 0, 0, 1, -3.08865, 0);animation-play-state:paused" ></circle>
<circle cx="756.3708897093233" cy="604.9278993949446" r="66.39888784884022" fill="#77d7ed" transform="matrix(1,0,0,1,-3.819972276687622,0)" style="transform:matrix(1, 0, 0, 1, -3.81997, 0);animation-play-state:paused" ></circle>
<circle cx="822.7697775581635" cy="597.2659457747171" r="62.529164553701015" fill="#77d7ed" transform="matrix(1,0,0,1,-4.60075569152832,0)" style="transform:matrix(1, 0, 0, 1, -4.60076, 0);animation-play-state:paused" ></circle>
<circle cx="885.2989421118644" cy="597.7628268204612" r="52.20639721455617" fill="#77d7ed" transform="matrix(1,0,0,1,-5.399243354797363,0)" style="transform:matrix(1, 0, 0, 1, -5.39924, 0);animation-play-state:paused" ></circle>
<circle cx="937.5053393264207" cy="602.5644195113387" r="41.83103899092125" fill="#77d7ed" transform="matrix(1,0,0,1,-6.180027961730957,0)" style="transform:matrix(1, 0, 0, 1, -6.18003, 0);animation-play-state:paused" ></circle>
<circle cx="979.3363783173419" cy="593.5303863748476" r="45.723653964277325" fill="#77d7ed" transform="matrix(1,0,0,1,-6.911351203918457,0)" style="transform:matrix(1, 0, 0, 1, -6.91135, 0);animation-play-state:paused" ></circle>
<circle cx="1025.0600322816192" cy="588.0153367192243" r="45.99785841088875" fill="#77d7ed" transform="matrix(1,0,0,1,-7.57051944732666,0)" style="transform:matrix(1, 0, 0, 1, -7.57052, 0);animation-play-state:paused" ></circle>
<circle cx="0" cy="669.5621484158069" r="34.53154298682766" fill="#99dcf9" transform="matrix(1,0,0,1,0,0)" style="transform:matrix(1, 0, 0, 1, 0, 0);animation-play-state:paused" ></circle>
<circle cx="34.53154298682766" cy="620.2667687068176" r="81.38151760431899" fill="#99dcf9" transform="matrix(1,0,0,1,-0.05069185048341751,0)" style="transform:matrix(1, 0, 0, 1, -0.0506919, 0);animation-play-state:paused" ></circle>
<circle cx="115.91306059114665" cy="665.7290107217609" r="49.509897899810206" fill="#99dcf9" transform="matrix(1,0,0,1,-0.21463724970817566,0)" style="transform:matrix(1, 0, 0, 1, -0.214637, 0);animation-play-state:paused" ></circle>
<circle cx="165.42295849095686" cy="664.4551410105798" r="58.74006174248343" fill="#99dcf9" transform="matrix(1,0,0,1,-0.5121520161628723,0)" style="transform:matrix(1, 0, 0, 1, -0.512152, 0);animation-play-state:paused" ></circle>
<circle cx="224.16302023344028" cy="678.9189676276903" r="49.53470518491126" fill="#99dcf9" transform="matrix(1,0,0,1,-0.9663259983062744,0)" style="transform:matrix(1, 0, 0, 1, -0.966326, 0);animation-play-state:paused" ></circle>
<circle cx="273.6977254183515" cy="694.4541943939172" r="31.480393047715086" fill="#99dcf9" transform="matrix(1,0,0,1,-1.6002674102783203,0)" style="transform:matrix(1, 0, 0, 1, -1.60027, 0);animation-play-state:paused" ></circle>
<circle cx="305.1781184660666" cy="691.9165547644646" r="42.5949733117026" fill="#99dcf9" transform="matrix(1,0,0,1,-2.429480791091919,0)" style="transform:matrix(1, 0, 0, 1, -2.42948, 0);animation-play-state:paused" ></circle>
<circle cx="347.7730917777692" cy="699.0031680923722" r="34.96963586048287" fill="#99dcf9" transform="matrix(1,0,0,1,-3.4464619159698486,0)" style="transform:matrix(1, 0, 0, 1, -3.44646, 0);animation-play-state:paused" ></circle>
<circle cx="382.74272763825206" cy="701.3167266858072" r="37.69324669305648" fill="#99dcf9" transform="matrix(1,0,0,1,-4.600757122039795,0)" style="transform:matrix(1, 0, 0, 1, -4.60076, 0);animation-play-state:paused" ></circle>
<circle cx="420.43597433130856" cy="704.8785411145044" r="37.32184223244954" fill="#99dcf9" transform="matrix(1,0,0,1,-5.794002532958984,0)" style="transform:matrix(1, 0, 0, 1, -5.794, 0);animation-play-state:paused" ></circle>
<circle cx="457.75781656375807" cy="707.1219646373888" r="53.82074226517814" fill="#99dcf9" transform="matrix(1,0,0,1,-6.911351680755615,0)" style="transform:matrix(1, 0, 0, 1, -6.91135, 0);animation-play-state:paused" ></circle>
<circle cx="511.5785588289362" cy="706.3934338893094" r="76.06215209497911" fill="#99dcf9" transform="matrix(1,0,0,1,-7.868857383728027,0)" style="transform:matrix(1, 0, 0, 1, -7.86886, 0);animation-play-state:paused" ></circle>
<circle cx="587.6407109239153" cy="692.8461402006152" r="73.20537948922204" fill="#99dcf9" transform="matrix(1,0,0,1,-8.632266998291016,0)" style="transform:matrix(1, 0, 0, 1, -8.63227, 0);animation-play-state:paused" ></circle>
<circle cx="660.8460904131374" cy="673.2045250232702" r="88.23128295995139" fill="#99dcf9" transform="matrix(1,0,0,1,-9.203954696655273,0)" style="transform:matrix(1, 0, 0, 1, -9.20395, 0);animation-play-state:paused" ></circle>
<circle cx="749.0773733730888" cy="675.2921358956027" r="55.29451600185064" fill="#99dcf9" transform="matrix(1,0,0,1,-9.603245735168457,0)" style="transform:matrix(1, 0, 0, 1, -9.60325, 0);animation-play-state:paused" ></circle>
<circle cx="804.3718893749394" cy="675.1099290830906" r="45.893753043048136" fill="#99dcf9" transform="matrix(1,0,0,1,-9.853781700134277,0)" style="transform:matrix(1, 0, 0, 1, -9.85378, 0);animation-play-state:paused" ></circle>
<circle cx="850.2656424179876" cy="631.3148217488346" r="89.02273634158031" fill="#99dcf9" transform="matrix(1,0,0,1,-9.977882385253906,0)" style="transform:matrix(1, 0, 0, 1, -9.97788, 0);animation-play-state:paused" ></circle>
<circle cx="939.2883787595679" cy="656.7076493584867" r="48.71592256200848" fill="#99dcf9" transform="matrix(1,0,0,1,-9.994569778442383,0)" style="transform:matrix(1, 0, 0, 1, -9.99457, 0);animation-play-state:paused" ></circle>
<circle cx="988.0043013215763" cy="605.4900069687983" r="85.4672745500943" fill="#99dcf9" transform="matrix(1,0,0,1,-9.908178329467773,0)" style="transform:matrix(1, 0, 0, 1, -9.90818, 0);animation-play-state:paused" ></circle>
<circle cx="0" cy="670.9783133247981" r="85.01807222933485" fill="#b7e1ff" transform="matrix(1,0,0,1,0,0)" style="transform:matrix(1, 0, 0, 1, 0, 0);animation-play-state:paused" ></circle>
<circle cx="85.01807222933485" cy="723.8532266380764" r="49.61765064081776" fill="#b7e1ff" transform="matrix(1,0,0,1,-0.09182170033454895,0)" style="transform:matrix(1, 0, 0, 1, -0.0918217, 0);animation-play-state:paused" ></circle>
<circle cx="134.63572287015262" cy="717.1328285907007" r="64.34466223880479" fill="#b7e1ff" transform="matrix(1,0,0,1,-0.3967548906803131,0)" style="transform:matrix(1, 0, 0, 1, -0.396755, 0);animation-play-state:paused" ></circle>
<circle cx="198.98038510895742" cy="728.0805056904001" r="63.29370350074575" fill="#b7e1ff" transform="matrix(1,0,0,1,-0.9663257002830505,0)" style="transform:matrix(1, 0, 0, 1, -0.966326, 0);animation-play-state:paused" ></circle>
<circle cx="262.2740886097032" cy="746.0115228249077" r="48.73858820194416" fill="#b7e1ff" transform="matrix(1,0,0,1,-1.8546782732009888,0)" style="transform:matrix(1, 0, 0, 1, -1.85468, 0);animation-play-state:paused" ></circle>
<circle cx="311.01267681164734" cy="733.4502256376016" r="91.20325527592092" fill="#b7e1ff" transform="matrix(1,0,0,1,-3.0886495113372803,0)" style="transform:matrix(1, 0, 0, 1, -3.08865, 0);animation-play-state:paused" ></circle>
<circle cx="402.21593208756826" cy="766.1428725180924" r="32.82280470369043" fill="#b7e1ff" transform="matrix(1,0,0,1,-4.60075569152832,0)" style="transform:matrix(1, 0, 0, 1, -4.60076, 0);animation-play-state:paused" ></circle>
<circle cx="435.0387367912587" cy="763.5529047103557" r="73.78469911926561" fill="#b7e1ff" transform="matrix(1,0,0,1,-6.180027961730957,0)" style="transform:matrix(1, 0, 0, 1, -6.18003, 0);animation-play-state:paused" ></circle>
<circle cx="508.8234359105243" cy="768.7681203152193" r="78.69694972787948" fill="#b7e1ff" transform="matrix(1,0,0,1,-7.57051944732666,0)" style="transform:matrix(1, 0, 0, 1, -7.57052, 0);animation-play-state:paused" ></circle>
<circle cx="587.5203856384038" cy="752.5594633468556" r="82.52506267642546" fill="#b7e1ff" transform="matrix(1,0,0,1,-8.632266998291016,0)" style="transform:matrix(1, 0, 0, 1, -8.63227, 0);animation-play-state:paused" ></circle>
<circle cx="670.0454483148293" cy="731.7254808174802" r="91.51047379644456" fill="#b7e1ff" transform="matrix(1,0,0,1,-9.355050086975098,0)" style="transform:matrix(1, 0, 0, 1, -9.35505, 0);animation-play-state:paused" ></circle>
<circle cx="761.5559221112738" cy="744.2126282702327" r="42.551895938570695" fill="#b7e1ff" transform="matrix(1,0,0,1,-9.785362243652344,0)" style="transform:matrix(1, 0, 0, 1, -9.78536, 0);animation-play-state:paused" ></circle>
<circle cx="804.1078180498446" cy="741.7972225329705" r="39.933191387644484" fill="#b7e1ff" transform="matrix(1,0,0,1,-9.977882385253906,0)" style="transform:matrix(1, 0, 0, 1, -9.97788, 0);animation-play-state:paused" ></circle>
<circle cx="844.041009437489" cy="735.6704223507993" r="42.43094358591607" fill="#b7e1ff" transform="matrix(1,0,0,1,-9.977882385253906,0)" style="transform:matrix(1, 0, 0, 1, -9.97788, 0);animation-play-state:paused" ></circle>
<circle cx="886.4719530234051" cy="716.3261670623056" r="57.57633385724437" fill="#b7e1ff" transform="matrix(1,0,0,1,-9.78536319732666,0)" style="transform:matrix(1, 0, 0, 1, -9.78536, 0);animation-play-state:paused" ></circle>
<circle cx="944.0482868806495" cy="719.1519024136321" r="47.814100970125565" fill="#b7e1ff" transform="matrix(1,0,0,1,-9.355049133300781,0)" style="transform:matrix(1, 0, 0, 1, -9.35505, 0);animation-play-state:paused" ></circle>
<circle cx="991.862387850775" cy="713.2110345457113" r="48.06132469118983" fill="#b7e1ff" transform="matrix(1,0,0,1,-8.632266998291016,0)" style="transform:matrix(1, 0, 0, 1, -8.63227, 0);animation-play-state:paused" ></circle>
<circle cx="1039.9237125419647" cy="728.7123724392551" r="32.506103664414994" fill="#b7e1ff" transform="matrix(1,0,0,1,-7.57051944732666,0)" style="transform:matrix(1, 0, 0, 1, -7.57052, 0);animation-play-state:paused" ></circle>
<circle cx="0" cy="775.6357587743287" r="49.47020102139282" fill="#d1e6ff" transform="matrix(1,0,0,1,0,0)" style="transform:matrix(1, 0, 0, 1, 0, 0);animation-play-state:paused" ></circle>
<circle cx="49.47020102139282" cy="761.7737443219224" r="67.92144329078302" fill="#d1e6ff" transform="matrix(1,0,0,1,-0.14621886610984802,0)" style="transform:matrix(1, 0, 0, 1, -0.146219, 0);animation-play-state:paused" ></circle>
<circle cx="117.39164431217583" cy="804.1220108986395" r="33.90431263469484" fill="#d1e6ff" transform="matrix(1,0,0,1,-0.6449503302574158,0)" style="transform:matrix(1, 0, 0, 1, -0.64495, 0);animation-play-state:paused" ></circle>
<circle cx="151.29595694687066" cy="780.2711147743702" r="66.16186602560408" fill="#d1e6ff" transform="matrix(1,0,0,1,-1.600266933441162,0)" style="transform:matrix(1, 0, 0, 1, -1.60027, 0);animation-play-state:paused" ></circle>
<circle cx="217.45782297247473" cy="780.8100177255751" r="81.59057473761621" fill="#d1e6ff" transform="matrix(1,0,0,1,-3.0886495113372803,0)" style="transform:matrix(1, 0, 0, 1, -3.08865, 0);animation-play-state:paused" ></circle>
<circle cx="299.04839771009097" cy="795.2184113400219" r="85.89814896215567" fill="#d1e6ff" transform="matrix(1,0,0,1,-5,0)" style="transform:matrix(1, 0, 0, 1, -5, 0);animation-play-state:paused" ></circle>
<circle cx="384.94654667224665" cy="817.4942878413287" r="69.61451363052899" fill="#d1e6ff" transform="matrix(1,0,0,1,-6.911351203918457,0)" style="transform:matrix(1, 0, 0, 1, -6.91135, 0);animation-play-state:paused" ></circle>
<circle cx="454.5610603027757" cy="830.1754312444607" r="60.358656547701514" fill="#d1e6ff" transform="matrix(1,0,0,1,-8.39973258972168,0)" style="transform:matrix(1, 0, 0, 1, -8.39973, 0);animation-play-state:paused" ></circle>
<circle cx="514.9197168504772" cy="830.4021339720458" r="66.83331734121205" fill="#d1e6ff" transform="matrix(1,0,0,1,-9.355050086975098,0)" style="transform:matrix(1, 0, 0, 1, -9.35505, 0);animation-play-state:paused" ></circle>
<circle cx="581.7530341916893" cy="819.9076578617475" r="64.64147106237324" fill="#d1e6ff" transform="matrix(1,0,0,1,-9.853780746459961,0)" style="transform:matrix(1, 0, 0, 1, -9.85378, 0);animation-play-state:paused" ></circle>
<circle cx="646.3945052540626" cy="805.2790447744295" r="75.67233456271612" fill="#d1e6ff" transform="matrix(1,0,0,1,-10,0)" style="transform:matrix(1, 0, 0, 1, -10, 0);animation-play-state:paused" ></circle>
<circle cx="722.0668398167786" cy="787.2929023753592" r="82.36436269682983" fill="#d1e6ff" transform="matrix(1,0,0,1,-9.853780746459961,0)" style="transform:matrix(1, 0, 0, 1, -9.85378, 0);animation-play-state:paused" ></circle>
<circle cx="804.4312025136085" cy="785.2747333840716" r="63.57336815609931" fill="#d1e6ff" transform="matrix(1,0,0,1,-9.355049133300781,0)" style="transform:matrix(1, 0, 0, 1, -9.35505, 0);animation-play-state:paused" ></circle>
<circle cx="868.0045706697077" cy="760.2759665258062" r="79.59354275367149" fill="#d1e6ff" transform="matrix(1,0,0,1,-8.399733543395996,0)" style="transform:matrix(1, 0, 0, 1, -8.39973, 0);animation-play-state:paused" ></circle>
<circle cx="947.5981134233792" cy="730.4205306711128" r="92.14504662323935" fill="#d1e6ff" transform="matrix(1,0,0,1,-6.911350727081299,0)" style="transform:matrix(1, 0, 0, 1, -6.91135, 0);animation-play-state:paused" ></circle>
<circle cx="0" cy="827.1372779139997" r="58.21893507166687" fill="#e6edff" transform="matrix(1,0,0,1,0,0)" style="transform:matrix(1, 0, 0, 1, 0, 0);animation-play-state:paused" ></circle>
<circle cx="58.21893507166687" cy="850.1657627063952" r="44.32773783554271" fill="#e6edff" transform="matrix(1,0,0,1,-0.2146373838186264,0)" style="transform:matrix(1, 0, 0, 1, -0.214637, 0);animation-play-state:paused" ></circle>
<circle cx="102.54667290720958" cy="813.5819945046878" r="88.05700157722923" fill="#e6edff" transform="matrix(1,0,0,1,-0.9663266539573669,0)" style="transform:matrix(1, 0, 0, 1, -0.966327, 0);animation-play-state:paused" ></circle>
<circle cx="190.6036744844388" cy="847.199163964788" r="68.18856224280617" fill="#e6edff" transform="matrix(1,0,0,1,-2.4294822216033936,0)" style="transform:matrix(1, 0, 0, 1, -2.42948, 0);animation-play-state:paused" ></circle>
<circle cx="258.792236727245" cy="846.1851553551478" r="90.36659178148946" fill="#e6edff" transform="matrix(1,0,0,1,-4.600759983062744,0)" style="transform:matrix(1, 0, 0, 1, -4.60076, 0);animation-play-state:paused" ></circle>
<circle cx="349.1588285087345" cy="873.6706640375179" r="68.68646047967789" fill="#e6edff" transform="matrix(1,0,0,1,-6.911355018615723,0)" style="transform:matrix(1, 0, 0, 1, -6.91136, 0);animation-play-state:paused" ></circle>
<circle cx="417.84528898841234" cy="882.4537702563927" r="85.36432034675826" fill="#e6edff" transform="matrix(1,0,0,1,-8.632269859313965,0)" style="transform:matrix(1, 0, 0, 1, -8.63227, 0);animation-play-state:paused" ></circle>
<circle cx="503.2096093351706" cy="894.287141170333" r="67.9207326309656" fill="#e6edff" transform="matrix(1,0,0,1,-9.603246688842773,0)" style="transform:matrix(1, 0, 0, 1, -9.60325, 0);animation-play-state:paused" ></circle>
<circle cx="571.1303419661363" cy="884.416953164031" r="60.69890745227494" fill="#e6edff" transform="matrix(1,0,0,1,-9.977882385253906,0)" style="transform:matrix(1, 0, 0, 1, -9.97788, 0);animation-play-state:paused" ></circle>
<circle cx="631.8292494184112" cy="879.6036400067779" r="48.74721641012991" fill="#e6edff" transform="matrix(1,0,0,1,-9.908177375793457,0)" style="transform:matrix(1, 0, 0, 1, -9.90818, 0);animation-play-state:paused" ></circle>
<circle cx="680.5764658285411" cy="866.3326572085018" r="64.294127368631" fill="#e6edff" transform="matrix(1,0,0,1,-9.355046272277832,0)" style="transform:matrix(1, 0, 0, 1, -9.35505, 0);animation-play-state:paused" ></circle>
<circle cx="744.8705931971722" cy="863.0645520032559" r="53.40715980029658" fill="#e6edff" transform="matrix(1,0,0,1,-8.14531421661377,0)" style="transform:matrix(1, 0, 0, 1, -8.14531, 0);animation-play-state:paused" ></circle>
<circle cx="798.2777529974687" cy="864.061815408108" r="42.94368331226308" fill="#e6edff" transform="matrix(1,0,0,1,-6.180017471313477,0)" style="transform:matrix(1, 0, 0, 1, -6.18002, 0);animation-play-state:paused" ></circle>
<circle cx="841.2214363097318" cy="822.2337268801059" r="85.66010616767242" fill="#e6edff" transform="matrix(1,0,0,1,-3.8199596405029297,0)" style="transform:matrix(1, 0, 0, 1, -3.81996, 0);animation-play-state:paused" ></circle>
<circle cx="926.8815424774042" cy="796.7030130979657" r="92.53368597486246" fill="#e6edff" transform="matrix(1,0,0,1,-1.8546695709228516,0)" style="transform:matrix(1, 0, 0, 1, -1.85467, 0);animation-play-state:paused" ></circle>
<circle cx="0" cy="886.2991256655104" r="60.584061945408045" fill="#f5f5ff" transform="matrix(1,0,0,1,0,0)" style="transform:matrix(1, 0, 0, 1, 0, 0);animation-play-state:paused" ></circle>
<circle cx="60.584061945408045" cy="908.8644362303742" r="47.71557802459123" fill="#f5f5ff" transform="matrix(1,0,0,1,-0.297871857881546,0)" style="transform:matrix(1, 0, 0, 1, -0.297872, 0);animation-play-state:paused" ></circle>
<circle cx="108.29963996999928" cy="898.3057428736137" r="65.04285520573691" fill="#f5f5ff" transform="matrix(1,0,0,1,-1.3677345514297485,0)" style="transform:matrix(1, 0, 0, 1, -1.36773, 0);animation-play-state:paused" ></circle>
<circle cx="173.3424951757362" cy="910.3476910199726" r="62.94996428920265" fill="#f5f5ff" transform="matrix(1,0,0,1,-3.4464633464813232,0)" style="transform:matrix(1, 0, 0, 1, -3.44646, 0);animation-play-state:paused" ></circle>
<circle cx="236.29245946493884" cy="930.0045794675697" r="46.93639505602481" fill="#f5f5ff" transform="matrix(1,0,0,1,-6.1800312995910645,0)" style="transform:matrix(1, 0, 0, 1, -6.18003, 0);animation-play-state:paused" ></circle>
<circle cx="283.22885452096364" cy="918.6389025592114" r="80.38370041489446" fill="#f5f5ff" transform="matrix(1,0,0,1,-8.399735450744629,0)" style="transform:matrix(1, 0, 0, 1, -8.39974, 0);animation-play-state:paused" ></circle>
<circle cx="363.6125549358581" cy="933.519060341029" r="83.80929415379379" fill="#f5f5ff" transform="matrix(1,0,0,1,-9.603246688842773,0)" style="transform:matrix(1, 0, 0, 1, -9.60325, 0);animation-play-state:paused" ></circle>
<circle cx="447.4218490896519" cy="951.0145443853828" r="81.88265484171876" fill="#f5f5ff" transform="matrix(1,0,0,1,-9.9945707321167,0)" style="transform:matrix(1, 0, 0, 1, -9.99457, 0);animation-play-state:paused" ></circle>
<circle cx="529.3045039313706" cy="952.5945510272395" r="61.44841486214207" fill="#f5f5ff" transform="matrix(1,0,0,1,-9.785361289978027,0)" style="transform:matrix(1, 0, 0, 1, -9.78536, 0);animation-play-state:paused" ></circle>
<circle cx="590.7529187935127" cy="938.4561879502969" r="80.3578715707978" fill="#f5f5ff" transform="matrix(1,0,0,1,-8.843363761901855,0)" style="transform:matrix(1, 0, 0, 1, -8.84336, 0);animation-play-state:paused" ></circle>
<circle cx="671.1107903643104" cy="936.7289871882394" r="49.09174170737917" fill="#f5f5ff" transform="matrix(1,0,0,1,-6.911342620849609,0)" style="transform:matrix(1, 0, 0, 1, -6.91134, 0);animation-play-state:paused" ></circle>
<circle cx="720.2025320716896" cy="931.9342035442423" r="47.101557163131346" fill="#f5f5ff" transform="matrix(1,0,0,1,-4.205990791320801,0)" style="transform:matrix(1, 0, 0, 1, -4.20599, 0);animation-play-state:paused" ></circle>
<circle cx="767.3040892348209" cy="901.5840909354948" r="83.12861159328773" fill="#f5f5ff" transform="matrix(1,0,0,1,-1.8546714782714844,0)" style="transform:matrix(1, 0, 0, 1, -1.85467, 0);animation-play-state:paused" ></circle>
<circle cx="850.4327008281086" cy="928.7763406909876" r="33.74976543101119" fill="#f5f5ff" transform="matrix(1,0,0,1,-0.5121488571166992,0)" style="transform:matrix(1, 0, 0, 1, -0.512149, 0);animation-play-state:paused" ></circle>
<circle cx="884.1824662591198" cy="886.0099232769603" r="74.57984340487432" fill="#f5f5ff" transform="matrix(1,0,0,1,-0.022116661071777344,0)" style="transform:matrix(1, 0, 0, 1, -0.0221167, 0);animation-play-state:paused" ></circle>
<circle cx="958.7623096639941" cy="922.3049426430978" r="31.566908035989883" fill="#f5f5ff" transform="matrix(1,0,0,1,-0.14622078835964203,0)" style="transform:matrix(1, 0, 0, 1, -0.146221, 0);animation-play-state:paused" ></circle>
<circle cx="990.3292176999839" cy="867.0897988055973" r="74.10700989803271" fill="#f5f5ff" transform="matrix(1,0,0,1,-0.9663317203521729,0)" style="transform:matrix(1, 0, 0, 1, -0.966332, 0);animation-play-state:paused" ></circle>
<circle cx="0" cy="927.5800467401154" r="77.84996104990377" fill="#ffffff" transform="matrix(1,0,0,1,0,0)" style="transform:matrix(1, 0, 0, 1, 0, 0);animation-play-state:paused" ></circle>
<circle cx="77.84996104990377" cy="928.9785910668239" r="91.27545293949152" fill="#ffffff" transform="matrix(1,0,0,1,-0.3967548906803131,0)" style="transform:matrix(1, 0, 0, 1, -0.396755, 0);animation-play-state:paused" ></circle>
<circle cx="169.12541398939527" cy="962.1295817272265" r="75.1603907132424" fill="#ffffff" transform="matrix(1,0,0,1,-1.8546782732009888,0)" style="transform:matrix(1, 0, 0, 1, -1.85468, 0);animation-play-state:paused" ></circle>
<circle cx="244.28580470263768" cy="991.6663547679357" r="49.04769170489262" fill="#ffffff" transform="matrix(1,0,0,1,-4.60075569152832,0)" style="transform:matrix(1, 0, 0, 1, -4.60076, 0);animation-play-state:paused" ></circle>
<circle cx="293.3334964075303" cy="1001.8080727705416" r="40.217196346001174" fill="#ffffff" transform="matrix(1,0,0,1,-7.57051944732666,0)" style="transform:matrix(1, 0, 0, 1, -7.57052, 0);animation-play-state:paused" ></circle>
<circle cx="333.55069275353145" cy="995.4660909861533" r="67.53051932307073" fill="#ffffff" transform="matrix(1,0,0,1,-9.355050086975098,0)" style="transform:matrix(1, 0, 0, 1, -9.35505, 0);animation-play-state:paused" ></circle>
<circle cx="401.0812120766022" cy="1014.1309619233641" r="32.44557665222326" fill="#ffffff" transform="matrix(1,0,0,1,-9.977882385253906,0)" style="transform:matrix(1, 0, 0, 1, -9.97788, 0);animation-play-state:paused" ></circle>
<circle cx="433.52678872882547" cy="1010.0022132545877" r="83.46737269145108" fill="#ffffff" transform="matrix(1,0,0,1,-9.78536319732666,0)" style="transform:matrix(1, 0, 0, 1, -9.78536, 0);animation-play-state:paused" ></circle>
<circle cx="516.9941614202766" cy="1016.2328411546224" r="64.50161875308235" fill="#ffffff" transform="matrix(1,0,0,1,-8.632266998291016,0)" style="transform:matrix(1, 0, 0, 1, -8.63227, 0);animation-play-state:paused" ></circle>
<circle cx="581.4957801733589" cy="1007.6368874240193" r="57.39088571436355" fill="#ffffff" transform="matrix(1,0,0,1,-6.180026531219482,0)" style="transform:matrix(1, 0, 0, 1, -6.18003, 0);animation-play-state:paused" ></circle>
<circle cx="638.8866658877224" cy="989.0470486334495" r="85.37663715991334" fill="#ffffff" transform="matrix(1,0,0,1,-3.088648796081543,0)" style="transform:matrix(1, 0, 0, 1, -3.08865, 0);animation-play-state:paused" ></circle>
<circle cx="724.2633030476358" cy="970.5736551195102" r="86.25308409601256" fill="#ffffff" transform="matrix(1,0,0,1,-0.9663257598876953,0)" style="transform:matrix(1, 0, 0, 1, -0.966326, 0);animation-play-state:paused" ></circle>
<circle cx="810.5163871436483" cy="956.5301433275041" r="80.87385329666112" fill="#ffffff" transform="matrix(1,0,0,1,-0.09182167053222656,0)" style="transform:matrix(1, 0, 0, 1, -0.0918217, 0);animation-play-state:paused" ></circle>
<circle cx="891.3902404403094" cy="931.8728652586774" r="89.44519072254701" fill="#ffffff" transform="matrix(1,0,0,1,-0.09182170033454895,0)" style="transform:matrix(1, 0, 0, 1, -0.0918217, 0);animation-play-state:paused" ></circle>
<circle cx="980.8354311628564" cy="937.3661160583939" r="68.7302201458323" fill="#ffffff" transform="matrix(1,0,0,1,-0.9663257002830505,0)" style="transform:matrix(1, 0, 0, 1, -0.966326, 0);animation-play-state:paused" ></circle></g></svg>